SubSource-HROTdd_VROTn_SLENn_SANGn.ufo
<glyph name="ampersand" format="2">
  <advance width="634"/>
  <unicode hex="0026"/>
  <outline>
    <contour>
      <point x="420" y="471" type="curve" smooth="yes"/>
      <point x="380" y="480"/>
      <point x="340" y="487"/>
      <point x="302" y="487" type="curve" smooth="yes"/>
      <point x="244" y="487"/>
      <point x="170" y="475"/>
      <point x="170" y="431" type="curve" smooth="yes"/>
      <point x="170" y="389"/>
      <point x="283" y="367"/>
      <point x="408" y="367" type="curve" smooth="yes"/>
      <point x="449" y="367"/>
      <point x="480" y="367"/>
      <point x="506" y="367" type="curve" smooth="yes"/>
      <point x="520" y="367"/>
      <point x="725" y="277"/>
      <point x="505" y="277" type="curve" smooth="yes"/>
      <point x="468" y="277"/>
      <point x="435" y="277"/>
      <point x="408" y="277" type="curve" smooth="yes"/>
      <point x="269" y="277"/>
      <point x="153" y="258"/>
      <point x="153" y="203" type="curve" smooth="yes"/>
      <point x="153" y="165"/>
      <point x="223" y="145"/>
      <point x="288" y="145" type="curve" smooth="yes"/>
      <point x="361" y="145"/>
      <point x="426" y="168"/>
      <point x="426" y="216" type="curve" smooth="yes"/>
      <point x="426" y="279"/>
      <point x="426" y="298"/>
      <point x="426" y="337" type="curve" smooth="yes"/>
      <point x="426" y="371"/>
      <point x="426" y="389"/>
      <point x="426" y="409" type="curve" smooth="yes"/>
      <point x="426" y="477"/>
      <point x="516" y="477"/>
      <point x="516" y="409" type="curve" smooth="yes"/>
      <point x="516" y="380"/>
      <point x="516" y="360"/>
      <point x="516" y="337" type="curve" smooth="yes"/>
      <point x="516" y="279"/>
      <point x="516" y="259"/>
      <point x="516" y="216" type="curve" smooth="yes"/>
      <point x="516" y="122"/>
      <point x="430" y="55"/>
      <point x="288" y="55" type="curve" smooth="yes"/>
      <point x="145" y="55"/>
      <point x="63" y="120"/>
      <point x="63" y="203" type="curve" smooth="yes"/>
      <point x="63" y="304"/>
      <point x="154" y="367"/>
      <point x="408" y="367" type="curve" smooth="yes"/>
      <point x="448" y="367"/>
      <point x="480" y="367"/>
      <point x="505" y="367" type="curve" smooth="yes"/>
      <point x="519" y="367"/>
      <point x="725" y="277"/>
      <point x="506" y="277" type="curve" smooth="yes"/>
      <point x="467" y="277"/>
      <point x="436" y="277"/>
      <point x="408" y="277" type="curve" smooth="yes"/>
      <point x="159" y="277"/>
      <point x="80" y="347"/>
      <point x="80" y="431" type="curve" smooth="yes"/>
      <point x="80" y="529"/>
      <point x="173" y="577"/>
      <point x="302" y="577" type="curve" smooth="yes"/>
      <point x="347" y="577"/>
      <point x="392" y="570"/>
      <point x="440" y="559" type="curve" smooth="yes"/>
      <point x="506" y="544"/>
      <point x="486" y="456"/>
    </contour>
  </outline>
</glyph>
<glyph name="parenright" format="2">
  <advance width="452"/>
  <unicode hex="0029"/>
  <outline>
    <contour>
      <point x="69" y="645" type="curve" smooth="yes"/>
      <point x="232" y="613"/>
      <point x="382" y="492"/>
      <point x="382" y="290" type="curve" smooth="yes"/>
      <point x="382" y="87"/>
      <point x="232" y="-34"/>
      <point x="69" y="-66" type="curve" smooth="yes"/>
      <point x="2" y="-79"/>
      <point x="-15" y="9"/>
      <point x="51" y="22" type="curve" smooth="yes"/>
      <point x="176" y="46"/>
      <point x="292" y="135"/>
      <point x="292" y="290" type="curve" smooth="yes"/>
      <point x="292" y="444"/>
      <point x="176" y="533"/>
      <point x="51" y="557" type="curve" smooth="yes"/>
      <point x="-15" y="570"/>
      <point x="2" y="658"/>
    </contour>
  </outline>
</glyph>
<glyph name="asterisk" format="2">
  <advance width="614"/>
  <unicode hex="002A"/>
  <outline>
    <contour>
      <point x="85" y="446" type="curve" smooth="yes"/>
      <point x="134" y="446"/>
      <point x="154" y="446"/>
      <point x="187" y="446" type="curve" smooth="yes"/>
      <point x="263" y="446"/>
      <point x="350" y="405"/>
      <point x="385" y="361" type="curve" smooth="yes"/>
      <point x="405" y="337"/>
      <point x="415" y="325"/>
      <point x="436" y="298" type="curve" smooth="yes"/>
      <point x="477" y="245"/>
      <point x="405" y="190"/>
      <point x="364" y="244" type="curve" smooth="yes"/>
      <point x="345" y="269"/>
      <point x="335" y="279"/>
      <point x="315" y="305" type="curve" smooth="yes"/>
      <point x="294" y="330"/>
      <point x="231" y="356"/>
      <point x="187" y="356" type="curve" smooth="yes"/>
      <point x="138" y="356"/>
      <point x="118" y="356"/>
      <point x="85" y="356" type="curve" smooth="yes"/>
      <point x="18" y="356"/>
      <point x="18" y="446"/>
    </contour>
    <contour>
      <point x="435" y="503" type="curve" smooth="yes"/>
      <point x="415" y="478"/>
      <point x="406" y="466"/>
      <point x="386" y="441" type="curve" smooth="yes"/>
      <point x="351" y="396"/>
      <point x="263" y="356"/>
      <point x="187" y="356" type="curve" smooth="yes"/>
      <point x="138" y="356"/>
      <point x="118" y="356"/>
      <point x="85" y="356" type="curve" smooth="yes"/>
      <point x="17" y="356"/>
      <point x="18" y="446"/>
      <point x="85" y="446" type="curve" smooth="yes"/>
      <point x="134" y="446"/>
      <point x="154" y="446"/>
      <point x="187" y="446" type="curve" smooth="yes"/>
      <point x="231" y="446"/>
      <point x="296" y="472"/>
      <point x="316" y="497" type="curve" smooth="yes"/>
      <point x="336" y="522"/>
      <point x="345" y="534"/>
      <point x="365" y="559" type="curve" smooth="yes"/>
      <point x="407" y="612"/>
      <point x="477" y="556"/>
    </contour>
    <contour>
      <point x="504" y="356" type="curve" smooth="yes"/>
      <point x="455" y="356"/>
      <point x="435" y="356"/>
      <point x="402" y="356" type="curve" smooth="yes"/>
      <point x="326" y="356"/>
      <point x="239" y="397"/>
      <point x="204" y="441" type="curve" smooth="yes"/>
      <point x="184" y="466"/>
      <point x="174" y="478"/>
      <point x="154" y="503" type="curve" smooth="yes"/>
      <point x="112" y="556"/>
      <point x="182" y="612"/>
      <point x="224" y="559" type="curve" smooth="yes"/>
      <point x="244" y="534"/>
      <point x="254" y="522"/>
      <point x="274" y="497" type="curve" smooth="yes"/>
      <point x="295" y="472"/>
      <point x="358" y="446"/>
      <point x="402" y="446" type="curve" smooth="yes"/>
      <point x="451" y="446"/>
      <point x="471" y="446"/>
      <point x="504" y="446" type="curve" smooth="yes"/>
      <point x="572" y="446"/>
      <point x="572" y="356"/>
    </contour>
    <contour>
      <point x="153" y="298" type="curve" smooth="yes"/>
      <point x="174" y="326"/>
      <point x="188" y="339"/>
      <point x="207" y="363" type="curve" smooth="yes"/>
      <point x="244" y="408"/>
      <point x="326" y="446"/>
      <point x="402" y="446" type="curve" smooth="yes"/>
      <point x="451" y="446"/>
      <point x="471" y="446"/>
      <point x="504" y="446" type="curve" smooth="yes"/>
      <point x="572" y="446"/>
      <point x="572" y="356"/>
      <point x="504" y="356" type="curve" smooth="yes"/>
      <point x="455" y="356"/>
      <point x="435" y="356"/>
      <point x="402" y="356" type="curve" smooth="yes"/>
      <point x="358" y="356"/>
      <point x="298" y="332"/>
      <point x="279" y="309" type="curve" smooth="yes"/>
      <point x="258" y="281"/>
      <point x="244" y="268"/>
      <point x="225" y="244" type="curve" smooth="yes"/>
      <point x="184" y="190"/>
      <point x="112" y="245"/>
    </contour>
    <contour>
      <point x="226" y="558" type="curve" smooth="yes"/>
      <point x="245" y="533"/>
      <point x="255" y="522"/>
      <point x="276" y="495" type="curve" smooth="yes"/>
      <point x="303" y="463"/>
      <point x="356" y="396"/>
      <point x="386" y="361" type="curve" smooth="yes"/>
      <point x="406" y="335"/>
      <point x="415" y="324"/>
      <point x="435" y="299" type="curve" smooth="yes"/>
      <point x="477" y="246"/>
      <point x="407" y="190"/>
      <point x="365" y="243" type="curve" smooth="yes"/>
      <point x="345" y="268"/>
      <point x="336" y="279"/>
      <point x="316" y="303" type="curve" smooth="yes"/>
      <point x="288" y="337"/>
      <point x="235" y="404"/>
      <point x="204" y="441" type="curve" smooth="yes"/>
      <point x="185" y="466"/>
      <point x="175" y="477"/>
      <point x="154" y="504" type="curve" smooth="yes"/>
      <point x="113" y="557"/>
      <point x="185" y="612"/>
    </contour>
  </outline>
</glyph>
<glyph name="plus" format="2">
  <advance width="540"/>
  <unicode hex="002B"/>
  <outline>
    <contour>
      <point x="315" y="432" type="curve" smooth="yes"/>
      <point x="315" y="322"/>
      <point x="315" y="231"/>
      <point x="315" y="156" type="curve" smooth="yes"/>
      <point x="315" y="89"/>
      <point x="225" y="89"/>
      <point x="225" y="156" type="curve" smooth="yes"/>
      <point x="225" y="268"/>
      <point x="225" y="358"/>
      <point x="225" y="432" type="curve" smooth="yes"/>
      <point x="225" y="500"/>
      <point x="315" y="500"/>
    </contour>
    <contour>
      <point x="460" y="249" type="curve" smooth="yes"/>
      <point x="308" y="249"/>
      <point x="182" y="249"/>
      <point x="80" y="249" type="curve" smooth="yes"/>
      <point x="12" y="249"/>
      <point x="13" y="339"/>
      <point x="80" y="339" type="curve" smooth="yes"/>
      <point x="232" y="339"/>
      <point x="358" y="339"/>
      <point x="460" y="339" type="curve" smooth="yes"/>
      <point x="528" y="339"/>
      <point x="528" y="249"/>
    </contour>
  </outline>
</glyph>
<glyph name="zero" format="2">
  <advance width="592"/>
  <unicode hex="0030"/>
  <outline>
    <contour>
      <point x="342" y="148" type="curve" smooth="yes"/>
      <point x="370" y="154"/>
      <point x="389" y="166"/>
      <point x="406" y="181" type="curve" smooth="yes"/>
      <point x="442" y="211"/>
      <point x="462" y="259"/>
      <point x="462" y="314" type="curve" smooth="yes"/>
      <point x="462" y="415"/>
      <point x="398" y="484"/>
      <point x="296" y="484" type="curve" smooth="yes"/>
      <point x="193" y="484"/>
      <point x="130" y="415"/>
      <point x="130" y="314" type="curve" smooth="yes"/>
      <point x="130" y="259"/>
      <point x="150" y="211"/>
      <point x="185" y="181" type="curve" smooth="yes"/>
      <point x="203" y="166"/>
      <point x="222" y="154"/>
      <point x="250" y="148" type="curve" smooth="yes"/>
      <point x="316" y="135"/>
      <point x="299" y="47"/>
      <point x="232" y="60" type="curve" smooth="yes"/>
      <point x="188" y="68"/>
      <point x="155" y="88"/>
      <point x="127" y="113" type="curve" smooth="yes"/>
      <point x="74" y="157"/>
      <point x="40" y="229"/>
      <point x="40" y="314" type="curve" smooth="yes"/>
      <point x="40" y="465"/>
      <point x="143" y="574"/>
      <point x="296" y="574" type="curve" smooth="yes"/>
      <point x="448" y="574"/>
      <point x="552" y="465"/>
      <point x="552" y="314" type="curve" smooth="yes"/>
      <point x="552" y="229"/>
      <point x="518" y="157"/>
      <point x="466" y="113" type="curve" smooth="yes"/>
      <point x="437" y="88"/>
      <point x="404" y="68"/>
      <point x="360" y="60" type="curve" smooth="yes"/>
      <point x="293" y="47"/>
      <point x="276" y="135"/>
    </contour>
  </outline>
</glyph>
<glyph name="three" format="2">
  <advance width="488"/>
  <unicode hex="0033"/>
  <outline>
    <contour>
      <point x="103" y="161" type="curve" smooth="yes"/>
      <point x="142" y="149"/>
      <point x="187" y="143"/>
      <point x="232" y="144" type="curve" smooth="yes"/>
      <point x="292" y="144"/>
      <point x="365" y="171"/>
      <point x="365" y="212" type="curve" smooth="yes"/>
      <point x="365" y="255"/>
      <point x="294" y="271"/>
      <point x="258" y="274" type="curve" smooth="yes"/>
      <point x="225" y="276"/>
      <point x="215" y="276"/>
      <point x="192" y="277" type="curve" smooth="yes"/>
      <point x="128" y="279"/>
      <point x="54" y="306"/>
      <point x="188" y="411" type="curve" smooth="yes"/>
      <point x="210" y="428"/>
      <point x="223" y="438"/>
      <point x="244" y="455" type="curve" smooth="yes"/>
      <point x="262" y="471"/>
      <point x="286" y="490"/>
      <point x="320" y="517" type="curve" smooth="yes"/>
      <point x="324" y="521"/>
      <point x="316" y="477"/>
      <point x="309" y="477" type="curve" smooth="yes"/>
      <point x="186" y="477"/>
      <point x="134" y="477"/>
      <point x="91" y="477" type="curve" smooth="yes"/>
      <point x="23" y="477"/>
      <point x="24" y="567"/>
      <point x="91" y="567" type="curve" smooth="yes"/>
      <point x="156" y="567"/>
      <point x="226" y="567"/>
      <point x="309" y="567" type="curve" smooth="yes"/>
      <point x="454" y="567"/>
      <point x="469" y="520"/>
      <point x="376" y="447" type="curve" smooth="yes"/>
      <point x="342" y="420"/>
      <point x="320" y="401"/>
      <point x="300" y="385" type="curve" smooth="yes"/>
      <point x="279" y="368"/>
      <point x="266" y="358"/>
      <point x="244" y="341" type="curve" smooth="yes"/>
      <point x="238" y="336"/>
      <point x="192" y="367"/>
      <point x="196" y="367" type="curve" smooth="yes"/>
      <point x="219" y="366"/>
      <point x="229" y="366"/>
      <point x="266" y="364" type="curve" smooth="yes"/>
      <point x="350" y="357"/>
      <point x="455" y="313"/>
      <point x="455" y="212" type="curve" smooth="yes"/>
      <point x="455" y="125"/>
      <point x="361" y="54"/>
      <point x="234" y="54" type="curve" smooth="yes"/>
      <point x="179" y="53"/>
      <point x="125" y="61"/>
      <point x="77" y="75" type="curve" smooth="yes"/>
      <point x="13" y="94"/>
      <point x="38" y="180"/>
    </contour>
  </outline>
</glyph>
<glyph name="four" format="2">
  <advance width="525"/>
  <unicode hex="0034"/>
  <outline>
    <contour>
      <point x="472" y="177" type="curve" smooth="yes"/>
      <point x="62" y="177" type="line" smooth="yes"/>
      <point x="37" y="177"/>
      <point x="17" y="197"/>
      <point x="17" y="222" type="curve" smooth="yes"/>
      <point x="17" y="244" type="line" smooth="yes"/>
      <point x="17" y="255"/>
      <point x="21" y="266"/>
      <point x="29" y="274" type="curve" smooth="yes"/>
      <point x="279" y="552" type="line" smooth="yes"/>
      <point x="287" y="562"/>
      <point x="299" y="567"/>
      <point x="312" y="567" type="curve" smooth="yes"/>
      <point x="370" y="567" type="line" smooth="yes"/>
      <point x="395" y="567"/>
      <point x="415" y="547"/>
      <point x="415" y="522" type="curve" smooth="yes"/>
      <point x="415" y="102" type="line" smooth="yes"/>
      <point x="415" y="34"/>
      <point x="325" y="35"/>
      <point x="325" y="102" type="curve" smooth="yes"/>
      <point x="325" y="522" type="line"/>
      <point x="370" y="477" type="line"/>
      <point x="312" y="477" type="line"/>
      <point x="345" y="492" type="line"/>
      <point x="95" y="214" type="line"/>
      <point x="107" y="244" type="line"/>
      <point x="107" y="222" type="line"/>
      <point x="62" y="267" type="line"/>
      <point x="472" y="267" type="line" smooth="yes"/>
      <point x="540" y="267"/>
      <point x="540" y="177"/>
    </contour>
  </outline>
</glyph>
<glyph name="eight" format="2">
  <advance width="535"/>
  <unicode hex="0038"/>
  <outline>
    <contour>
      <point x="202" y="62" type="curve" smooth="yes"/>
      <point x="102" y="81"/>
      <point x="45" y="143"/>
      <point x="45" y="219" type="curve" smooth="yes"/>
      <point x="45" y="314"/>
      <point x="136" y="375"/>
      <point x="269" y="375" type="curve" smooth="yes"/>
      <point x="322" y="375"/>
      <point x="380" y="392"/>
      <point x="380" y="426" type="curve" smooth="yes"/>
      <point x="380" y="465"/>
      <point x="326" y="486"/>
      <point x="269" y="486" type="curve" smooth="yes"/>
      <point x="212" y="486"/>
      <point x="156" y="464"/>
      <point x="156" y="426" type="curve" smooth="yes"/>
      <point x="156" y="390"/>
      <point x="215" y="375"/>
      <point x="268" y="375" type="curve" smooth="yes"/>
      <point x="401" y="375"/>
      <point x="490" y="314"/>
      <point x="490" y="219" type="curve" smooth="yes"/>
      <point x="490" y="143"/>
      <point x="432" y="80"/>
      <point x="332" y="61" type="curve" smooth="yes"/>
      <point x="266" y="48"/>
      <point x="249" y="137"/>
      <point x="316" y="149" type="curve" smooth="yes"/>
      <point x="363" y="158"/>
      <point x="400" y="182"/>
      <point x="400" y="219" type="curve" smooth="yes"/>
      <point x="400" y="266"/>
      <point x="333" y="285"/>
      <point x="268" y="285" type="curve" smooth="yes"/>
      <point x="144" y="285"/>
      <point x="66" y="342"/>
      <point x="66" y="426" type="curve" smooth="yes"/>
      <point x="66" y="508"/>
      <point x="145" y="576"/>
      <point x="269" y="576" type="curve" smooth="yes"/>
      <point x="392" y="576"/>
      <point x="470" y="511"/>
      <point x="470" y="426" type="curve" smooth="yes"/>
      <point x="470" y="346"/>
      <point x="394" y="285"/>
      <point x="269" y="285" type="curve" smooth="yes"/>
      <point x="204" y="285"/>
      <point x="135" y="265"/>
      <point x="135" y="219" type="curve" smooth="yes"/>
      <point x="135" y="182"/>
      <point x="171" y="159"/>
      <point x="218" y="150" type="curve" smooth="yes"/>
      <point x="285" y="138"/>
      <point x="268" y="49"/>
    </contour>
  </outline>
</glyph>
<glyph name="greater" format="2">
  <advance width="447"/>
  <unicode hex="003E"/>
  <outline>
    <contour>
      <point x="70" y="216" type="curve" smooth="yes"/>
      <point x="131" y="242"/>
      <point x="193" y="270"/>
      <point x="269" y="302" type="curve" smooth="yes"/>
      <point x="276" y="304"/>
      <point x="273" y="285"/>
      <point x="266" y="288" type="curve" smooth="yes"/>
      <point x="189" y="321"/>
      <point x="129" y="345"/>
      <point x="70" y="371" type="curve" smooth="yes"/>
      <point x="8" y="397"/>
      <point x="44" y="480"/>
      <point x="106" y="453" type="curve" smooth="yes"/>
      <point x="166" y="427"/>
      <point x="227" y="402"/>
      <point x="302" y="370" type="curve" smooth="yes"/>
      <point x="429" y="316"/>
      <point x="426" y="267"/>
      <point x="303" y="218" type="curve" smooth="yes"/>
      <point x="227" y="188"/>
      <point x="167" y="160"/>
      <point x="106" y="134" type="curve" smooth="yes"/>
      <point x="44" y="107"/>
      <point x="8" y="190"/>
    </contour>
  </outline>
</glyph>
<glyph name="E" format="2">
  <advance width="523"/>
  <unicode hex="0045"/>
  <outline>
    <contour>
      <point x="423" y="477" type="curve" smooth="yes"/>
      <point x="363" y="477"/>
      <point x="329" y="477"/>
      <point x="294" y="477" type="curve" smooth="yes"/>
      <point x="250" y="477"/>
      <point x="237" y="477"/>
      <point x="206" y="477" type="curve" smooth="yes"/>
      <point x="176" y="477"/>
      <point x="170" y="479"/>
      <point x="170" y="458" type="curve" smooth="yes"/>
      <point x="170" y="419"/>
      <point x="170" y="392"/>
      <point x="170" y="374" type="curve" smooth="yes"/>
      <point x="170" y="369"/>
      <point x="183" y="366"/>
      <point x="189" y="366" type="curve" smooth="yes"/>
      <point x="243" y="366"/>
      <point x="298" y="366"/>
      <point x="339" y="366" type="curve" smooth="yes"/>
      <point x="364" y="366"/>
      <point x="600" y="276"/>
      <point x="339" y="276" type="curve" smooth="yes"/>
      <point x="285" y="276"/>
      <point x="233" y="276"/>
      <point x="190" y="276" type="curve" smooth="yes"/>
      <point x="186" y="276"/>
      <point x="170" y="285"/>
      <point x="170" y="283" type="curve" smooth="yes"/>
      <point x="170" y="233"/>
      <point x="170" y="181"/>
      <point x="170" y="159" type="curve" smooth="yes"/>
      <point x="170" y="148"/>
      <point x="190" y="150"/>
      <point x="204" y="150" type="curve" smooth="yes"/>
      <point x="241" y="150"/>
      <point x="254" y="150"/>
      <point x="288" y="150" type="curve" smooth="yes"/>
      <point x="334" y="150"/>
      <point x="377" y="150"/>
      <point x="423" y="150" type="curve" smooth="yes"/>
      <point x="491" y="150"/>
      <point x="491" y="60"/>
      <point x="423" y="60" type="curve" smooth="yes"/>
      <point x="355" y="60"/>
      <point x="319" y="60"/>
      <point x="288" y="60" type="curve" smooth="yes"/>
      <point x="237" y="60"/>
      <point x="229" y="60"/>
      <point x="204" y="60" type="curve" smooth="yes"/>
      <point x="119" y="60"/>
      <point x="80" y="93"/>
      <point x="80" y="159" type="curve" smooth="yes"/>
      <point x="80" y="192"/>
      <point x="80" y="249"/>
      <point x="80" y="283" type="curve" smooth="yes"/>
      <point x="80" y="331"/>
      <point x="108" y="366"/>
      <point x="190" y="366" type="curve" smooth="yes"/>
      <point x="253" y="366"/>
      <point x="303" y="366"/>
      <point x="339" y="366" type="curve" smooth="yes"/>
      <point x="364" y="366"/>
      <point x="600" y="276"/>
      <point x="339" y="276" type="curve" smooth="yes"/>
      <point x="278" y="276"/>
      <point x="225" y="276"/>
      <point x="189" y="276" type="curve" smooth="yes"/>
      <point x="124" y="276"/>
      <point x="80" y="323"/>
      <point x="80" y="374" type="curve" smooth="yes"/>
      <point x="80" y="401"/>
      <point x="80" y="432"/>
      <point x="80" y="458" type="curve" smooth="yes"/>
      <point x="80" y="525"/>
      <point x="110" y="567"/>
      <point x="206" y="567" type="curve" smooth="yes"/>
      <point x="252" y="567"/>
      <point x="265" y="567"/>
      <point x="294" y="567" type="curve" smooth="yes"/>
      <point x="346" y="567"/>
      <point x="383" y="567"/>
      <point x="423" y="567" type="curve" smooth="yes"/>
      <point x="491" y="567"/>
      <point x="491" y="477"/>
    </contour>
  </outline>
</glyph>
<glyph name="G" format="2">
  <advance width="653"/>
  <unicode hex="0047"/>
  <outline>
    <contour>
      <point x="522" y="464" type="curve" smooth="yes"/>
      <point x="467" y="480"/>
      <point x="415" y="488"/>
      <point x="369" y="488" type="curve" smooth="yes"/>
      <point x="228" y="486"/>
      <point x="135" y="415"/>
      <point x="135" y="317" type="curve" smooth="yes"/>
      <point x="135" y="217"/>
      <point x="221" y="145"/>
      <point x="361" y="145" type="curve" smooth="yes"/>
      <point x="407" y="145"/>
      <point x="501" y="161"/>
      <point x="507" y="174" type="curve" smooth="yes"/>
      <point x="515" y="191"/>
      <point x="513" y="220"/>
      <point x="513" y="252" type="curve" smooth="yes"/>
      <point x="513" y="259"/>
      <point x="512" y="257"/>
      <point x="506" y="257" type="curve" smooth="yes"/>
      <point x="457" y="257"/>
      <point x="410" y="257"/>
      <point x="387" y="257" type="curve" smooth="yes"/>
      <point x="320" y="257"/>
      <point x="320" y="347"/>
      <point x="387" y="347" type="curve" smooth="yes"/>
      <point x="421" y="347"/>
      <point x="473" y="347"/>
      <point x="506" y="347" type="curve" smooth="yes"/>
      <point x="568" y="347"/>
      <point x="603" y="321"/>
      <point x="603" y="252" type="curve" smooth="yes"/>
      <point x="603" y="194"/>
      <point x="604" y="170"/>
      <point x="589" y="134" type="curve" smooth="yes"/>
      <point x="570" y="97"/>
      <point x="497" y="55"/>
      <point x="361" y="55" type="curve" smooth="yes"/>
      <point x="161" y="55"/>
      <point x="45" y="175"/>
      <point x="45" y="317" type="curve" smooth="yes"/>
      <point x="45" y="457"/>
      <point x="166" y="576"/>
      <point x="369" y="578" type="curve" smooth="yes"/>
      <point x="423" y="578"/>
      <point x="483" y="570"/>
      <point x="548" y="550" type="curve" smooth="yes"/>
      <point x="613" y="531"/>
      <point x="587" y="445"/>
    </contour>
  </outline>
</glyph>
<glyph name="L" format="2">
  <advance width="498"/>
  <unicode hex="004C"/>
  <outline>
    <contour>
      <point x="413" y="63" type="curve" smooth="yes"/>
      <point x="340" y="63"/>
      <point x="280" y="63"/>
      <point x="220" y="63" type="curve" smooth="yes"/>
      <point x="96" y="63"/>
      <point x="80" y="106"/>
      <point x="80" y="219" type="curve" smooth="yes"/>
      <point x="80" y="310"/>
      <point x="80" y="382"/>
      <point x="80" y="443" type="curve" smooth="yes"/>
      <point x="80" y="478"/>
      <point x="80" y="505"/>
      <point x="80" y="528" type="curve" smooth="yes"/>
      <point x="80" y="596"/>
      <point x="170" y="596"/>
      <point x="170" y="528" type="curve" smooth="yes"/>
      <point x="170" y="494"/>
      <point x="170" y="467"/>
      <point x="170" y="443" type="curve" smooth="yes"/>
      <point x="170" y="352"/>
      <point x="170" y="280"/>
      <point x="170" y="219" type="curve" smooth="yes"/>
      <point x="170" y="163"/>
      <point x="158" y="153"/>
      <point x="220" y="153" type="curve" smooth="yes"/>
      <point x="309" y="153"/>
      <point x="364" y="153"/>
      <point x="413" y="153" type="curve" smooth="yes"/>
      <point x="481" y="153"/>
      <point x="481" y="63"/>
    </contour>
  </outline>
</glyph>
<glyph name="O" format="2">
  <advance width="732"/>
  <unicode hex="004F"/>
  <outline>
    <contour>
      <point x="-2265.940961323171" y="58.319112088148884" type="curve" smooth="yes"/>
      <point x="-2307.7766032607715" y="63.91562644287463"/>
      <point x="-2341.215136379719" y="73.87250306671896"/>
      <point x="-2376.312329267299" y="90.57071798860962" type="curve" smooth="yes"/>
      <point x="-2468.373961168399" y="134.37094213954296"/>
      <point x="-2522.994286511497" y="217.50838090838928"/>
      <point x="-2523.011186618717" y="314.3388631065013" type="curve" smooth="yes"/>
      <point x="-2523.0370710051666" y="462.6454737432938"/>
      <point x="-2392.111441598817" y="574.3071785686864"/>
      <point x="-2200.0487092162425" y="574.3071785686864" type="curve" smooth="yes"/>
      <point x="-2009.1642758053415" y="574.3071785686864"/>
      <point x="-1881.0369353654844" y="461.82799850041795"/>
      <point x="-1881.0111963969364" y="314.35457106945023" type="curve" smooth="yes"/>
      <point x="-1880.9946287956693" y="219.4292076615255"/>
      <point x="-1933.1681769260158" y="140.12900551979862"/>
      <point x="-2019.9480541880855" y="94.25171668606285" type="curve" smooth="yes"/>
      <point x="-2055.789048481353" y="75.30391796637964"/>
      <point x="-2092.5455547182273" y="64.01968874270567"/>
      <point x="-2133.844628983389" y="58.341219381706324" type="curve" smooth="yes"/>
      <point x="-2200.715484180627" y="49.14672509490216"/>
      <point x="-2212.9748098963655" y="138.3078653578857"/>
      <point x="-2146.103954699128" y="147.50235964468988" type="curve" smooth="yes"/>
      <point x="-2115.4059959197702" y="151.723214990129"/>
      <point x="-2088.652313661896" y="159.73319656262564"/>
      <point x="-2062.011392890604" y="173.8172590847495" type="curve" smooth="yes"/>
      <point x="-2005.3433432896545" y="203.77554620396376"/>
      <point x="-1971.0003762317556" y="252.35173692350884"/>
      <point x="-1971.0111950261582" y="314.33886310650144" type="curve" smooth="yes"/>
      <point x="-1971.0290849035723" y="416.84031080746837"/>
      <point x="-2067.3744294558774" y="484.30717856868637"/>
      <point x="-2200.0487092162425" y="484.30717856868637" type="curve" smooth="yes"/>
      <point x="-2333.475219383768" y="484.30717856868637"/>
      <point x="-2433.0291699441887" y="417.38358271875353"/>
      <point x="-2433.0111879894957" y="314.35457106945034" type="curve" smooth="yes"/>
      <point x="-2433.0002071112353" y="251.4387727808452"/>
      <point x="-2397.4633492067296" y="200.30068624120383"/>
      <point x="-2337.6461208781657" y="171.84140353271044" type="curve" smooth="yes"/>
      <point x="-2310.658015285594" y="159.00125449392758"/>
      <point x="-2286.177277564164" y="151.82792564616943"/>
      <point x="-2254.0076187039376" y="147.52446693824731" type="curve" smooth="yes"/>
      <point x="-2187.103602566364" y="138.57445997382192"/>
      <point x="-2199.0369451855972" y="49.369105123723486"/>
    </contour>
  </outline>
</glyph>
<glyph name="R" format="2">
  <advance width="595"/>
  <unicode hex="0052"/>
  <outline>
    <contour>
      <point x="80" y="104" type="curve" smooth="yes"/>
      <point x="80" y="138"/>
      <point x="80" y="173"/>
      <point x="80" y="190" type="curve" smooth="yes"/>
      <point x="80" y="251"/>
      <point x="80" y="372"/>
      <point x="80" y="440" type="curve" smooth="yes"/>
      <point x="80" y="522"/>
      <point x="103" y="570"/>
      <point x="197" y="570" type="curve" smooth="yes"/>
      <point x="227" y="570"/>
      <point x="254" y="570"/>
      <point x="280" y="570" type="curve" smooth="yes"/>
      <point x="420" y="570"/>
      <point x="500" y="499"/>
      <point x="500" y="412" type="curve" smooth="yes"/>
      <point x="500" y="323"/>
      <point x="418" y="256"/>
      <point x="292" y="256" type="curve" smooth="yes"/>
      <point x="255" y="256" type="line" smooth="yes"/>
      <point x="226" y="256"/>
      <point x="-18" y="346"/>
      <point x="255" y="346" type="curve" smooth="yes"/>
      <point x="336" y="346"/>
      <point x="389" y="312"/>
      <point x="428" y="273" type="curve" smooth="yes"/>
      <point x="471" y="230"/>
      <point x="508" y="183"/>
      <point x="553" y="134" type="curve" smooth="yes"/>
      <point x="599" y="85"/>
      <point x="533" y="24"/>
      <point x="487" y="74" type="curve" smooth="yes"/>
      <point x="440" y="125"/>
      <point x="405" y="168"/>
      <point x="364" y="209" type="curve" smooth="yes"/>
      <point x="339" y="234"/>
      <point x="308" y="256"/>
      <point x="255" y="256" type="curve" smooth="yes"/>
      <point x="226" y="256"/>
      <point x="-18" y="346"/>
      <point x="255" y="346" type="curve" smooth="yes"/>
      <point x="292" y="346" type="line" smooth="yes"/>
      <point x="353" y="346"/>
      <point x="410" y="369"/>
      <point x="410" y="412" type="curve" smooth="yes"/>
      <point x="410" y="455"/>
      <point x="350" y="480"/>
      <point x="280" y="480" type="curve" smooth="yes"/>
      <point x="241" y="480"/>
      <point x="217" y="480"/>
      <point x="197" y="480" type="curve" smooth="yes"/>
      <point x="164" y="480"/>
      <point x="170" y="469"/>
      <point x="170" y="440" type="curve" smooth="yes"/>
      <point x="170" y="339"/>
      <point x="170" y="231"/>
      <point x="170" y="190" type="curve" smooth="yes"/>
      <point x="170" y="164"/>
      <point x="170" y="127"/>
      <point x="170" y="104" type="curve" smooth="yes"/>
      <point x="170" y="37"/>
      <point x="80" y="37"/>
    </contour>
  </outline>
</glyph>
<glyph name="Y" format="2">
  <advance width="582"/>
  <unicode hex="0059"/>
  <outline>
    <contour>
      <point x="538" y="498" type="curve" smooth="yes"/>
      <point x="517" y="471"/>
      <point x="497" y="444"/>
      <point x="476" y="417" type="curve" smooth="yes"/>
      <point x="436" y="366"/>
      <point x="407" y="330"/>
      <point x="368" y="279" type="curve" smooth="yes"/>
      <point x="352" y="258"/>
      <point x="336" y="234"/>
      <point x="336" y="206" type="curve" smooth="yes"/>
      <point x="336" y="188"/>
      <point x="336" y="174"/>
      <point x="336" y="152" type="curve" smooth="yes"/>
      <point x="336" y="134"/>
      <point x="246" y="-83"/>
      <point x="246" y="155" type="curve" smooth="yes"/>
      <point x="246" y="183"/>
      <point x="246" y="194"/>
      <point x="246" y="207" type="curve" smooth="yes"/>
      <point x="246" y="269"/>
      <point x="213" y="282"/>
      <point x="168" y="337" type="curve" smooth="yes"/>
      <point x="125" y="390"/>
      <point x="100" y="426"/>
      <point x="44" y="499" type="curve" smooth="yes"/>
      <point x="3" y="552"/>
      <point x="75" y="607"/>
      <point x="116" y="553" type="curve" smooth="yes"/>
      <point x="170" y="482"/>
      <point x="195" y="446"/>
      <point x="238" y="393" type="curve" smooth="yes"/>
      <point x="307" y="309"/>
      <point x="336" y="303"/>
      <point x="336" y="207" type="curve" smooth="yes"/>
      <point x="336" y="188"/>
      <point x="336" y="174"/>
      <point x="336" y="155" type="curve" smooth="yes"/>
      <point x="336" y="136"/>
      <point x="246" y="-83"/>
      <point x="246" y="152" type="curve" smooth="yes"/>
      <point x="246" y="185"/>
      <point x="246" y="194"/>
      <point x="246" y="206" type="curve" smooth="yes"/>
      <point x="246" y="256"/>
      <point x="268" y="296"/>
      <point x="296" y="333" type="curve" smooth="yes"/>
      <point x="335" y="384"/>
      <point x="364" y="422"/>
      <point x="404" y="473" type="curve" smooth="yes"/>
      <point x="425" y="500"/>
      <point x="445" y="527"/>
      <point x="466" y="554" type="curve" smooth="yes"/>
      <point x="508" y="607"/>
      <point x="579" y="552"/>
    </contour>
  </outline>
</glyph>
<glyph name="asciicircum" format="2">
  <advance width="560"/>
  <unicode hex="005E"/>
  <outline>
    <contour>
      <point x="75" y="315" type="curve" smooth="yes"/>
      <point x="107" y="362"/>
      <point x="142" y="409"/>
      <point x="182" y="471" type="curve" smooth="yes"/>
      <point x="257" y="583"/>
      <point x="294" y="588"/>
      <point x="375" y="469" type="curve" smooth="yes"/>
      <point x="415" y="411"/>
      <point x="451" y="363"/>
      <point x="484" y="316" type="curve" smooth="yes"/>
      <point x="523" y="261"/>
      <point x="449" y="209"/>
      <point x="410" y="264" type="curve" smooth="yes"/>
      <point x="377" y="311"/>
      <point x="341" y="359"/>
      <point x="301" y="419" type="curve" smooth="yes"/>
      <point x="274" y="458"/>
      <point x="282" y="459"/>
      <point x="258" y="421" type="curve" smooth="yes"/>
      <point x="216" y="359"/>
      <point x="181" y="311"/>
      <point x="149" y="265" type="curve" smooth="yes"/>
      <point x="111" y="209"/>
      <point x="37" y="260"/>
    </contour>
  </outline>
</glyph>
<glyph name="a" format="2">
  <advance width="584"/>
  <unicode hex="0061"/>
  <outline>
    <contour>
      <point x="519" y="395" type="curve" smooth="yes"/>
      <point x="519" y="347"/>
      <point x="519" y="291"/>
      <point x="519" y="236" type="curve" smooth="yes"/>
      <point x="519" y="125"/>
      <point x="423" y="55"/>
      <point x="280" y="55" type="curve" smooth="yes"/>
      <point x="138" y="55"/>
      <point x="39" y="140"/>
      <point x="39" y="252" type="curve" smooth="yes"/>
      <point x="39" y="362"/>
      <point x="137" y="448"/>
      <point x="279" y="448" type="curve" smooth="yes"/>
      <point x="420" y="448"/>
      <point x="519" y="365"/>
      <point x="519" y="253" type="curve" smooth="yes"/>
      <point x="519" y="221"/>
      <point x="519" y="183"/>
      <point x="519" y="167" type="curve" smooth="yes"/>
      <point x="519" y="139"/>
      <point x="519" y="116"/>
      <point x="519" y="96" type="curve" smooth="yes"/>
      <point x="519" y="28"/>
      <point x="429" y="29"/>
      <point x="429" y="96" type="curve" smooth="yes"/>
      <point x="429" y="125"/>
      <point x="429" y="148"/>
      <point x="429" y="167" type="curve" smooth="yes"/>
      <point x="429" y="191"/>
      <point x="429" y="232"/>
      <point x="429" y="253" type="curve" smooth="yes"/>
      <point x="429" y="319"/>
      <point x="361" y="358"/>
      <point x="279" y="358" type="curve" smooth="yes"/>
      <point x="196" y="358"/>
      <point x="129" y="317"/>
      <point x="129" y="252" type="curve" smooth="yes"/>
      <point x="129" y="186"/>
      <point x="196" y="145"/>
      <point x="280" y="145" type="curve" smooth="yes"/>
      <point x="362" y="145"/>
      <point x="429" y="172"/>
      <point x="429" y="236" type="curve" smooth="yes"/>
      <point x="429" y="318"/>
      <point x="429" y="363"/>
      <point x="429" y="395" type="curve" smooth="yes"/>
      <point x="429" y="463"/>
      <point x="519" y="463"/>
    </contour>
  </outline>
</glyph>
<glyph name="d" format="2">
  <advance width="584"/>
  <unicode hex="0064"/>
  <outline>
    <contour>
      <point x="519" y="568" type="curve" smooth="yes"/>
      <point x="519" y="542"/>
      <point x="519" y="521"/>
      <point x="519" y="496" type="curve" smooth="yes"/>
      <point x="519" y="375"/>
      <point x="519" y="339"/>
      <point x="519" y="243" type="curve" smooth="yes"/>
      <point x="519" y="132"/>
      <point x="422" y="55"/>
      <point x="280" y="55" type="curve" smooth="yes"/>
      <point x="138" y="55"/>
      <point x="39" y="140"/>
      <point x="39" y="252" type="curve" smooth="yes"/>
      <point x="39" y="362"/>
      <point x="137" y="448"/>
      <point x="279" y="448" type="curve" smooth="yes"/>
      <point x="420" y="448"/>
      <point x="519" y="365"/>
      <point x="519" y="253" type="curve" smooth="yes"/>
      <point x="519" y="221"/>
      <point x="519" y="183"/>
      <point x="519" y="167" type="curve" smooth="yes"/>
      <point x="519" y="139"/>
      <point x="519" y="116"/>
      <point x="519" y="96" type="curve" smooth="yes"/>
      <point x="519" y="28"/>
      <point x="429" y="29"/>
      <point x="429" y="96" type="curve" smooth="yes"/>
      <point x="429" y="125"/>
      <point x="429" y="148"/>
      <point x="429" y="167" type="curve" smooth="yes"/>
      <point x="429" y="191"/>
      <point x="429" y="232"/>
      <point x="429" y="253" type="curve" smooth="yes"/>
      <point x="429" y="319"/>
      <point x="361" y="358"/>
      <point x="279" y="358" type="curve" smooth="yes"/>
      <point x="196" y="358"/>
      <point x="129" y="317"/>
      <point x="129" y="252" type="curve" smooth="yes"/>
      <point x="129" y="186"/>
      <point x="196" y="145"/>
      <point x="280" y="145" type="curve" smooth="yes"/>
      <point x="363" y="145"/>
      <point x="429" y="179"/>
      <point x="429" y="243" type="curve" smooth="yes"/>
      <point x="429" y="386"/>
      <point x="429" y="415"/>
      <point x="429" y="496" type="curve" smooth="yes"/>
      <point x="429" y="533"/>
      <point x="429" y="551"/>
      <point x="429" y="568" type="curve" smooth="yes"/>
      <point x="429" y="636"/>
      <point x="519" y="636"/>
    </contour>
  </outline>
</glyph>
<glyph name="g" format="2">
  <advance width="556"/>
  <unicode hex="0067"/>
  <outline>
    <contour>
      <point x="133" y="51" type="curve" smooth="yes"/>
      <point x="231" y="17"/>
      <point x="400" y="29"/>
      <point x="400" y="110" type="curve" smooth="yes"/>
      <point x="400" y="177"/>
      <point x="400" y="229"/>
      <point x="400" y="274" type="curve" smooth="yes"/>
      <point x="400" y="326"/>
      <point x="336" y="358"/>
      <point x="264" y="358" type="curve" smooth="yes"/>
      <point x="192" y="358"/>
      <point x="129" y="325"/>
      <point x="129" y="272" type="curve" smooth="yes"/>
      <point x="129" y="218"/>
      <point x="192" y="185"/>
      <point x="265" y="185" type="curve" smooth="yes"/>
      <point x="337" y="185"/>
      <point x="400" y="218"/>
      <point x="400" y="271" type="curve" smooth="yes"/>
      <point x="400" y="323"/>
      <point x="400" y="364"/>
      <point x="400" y="400" type="curve" smooth="yes"/>
      <point x="400" y="468"/>
      <point x="490" y="468"/>
      <point x="490" y="400" type="curve" smooth="yes"/>
      <point x="490" y="346"/>
      <point x="490" y="306"/>
      <point x="490" y="271" type="curve" smooth="yes"/>
      <point x="490" y="173"/>
      <point x="399" y="95"/>
      <point x="265" y="95" type="curve" smooth="yes"/>
      <point x="131" y="95"/>
      <point x="39" y="173"/>
      <point x="39" y="272" type="curve" smooth="yes"/>
      <point x="39" y="370"/>
      <point x="131" y="448"/>
      <point x="264" y="448" type="curve" smooth="yes"/>
      <point x="399" y="448"/>
      <point x="490" y="371"/>
      <point x="490" y="274" type="curve" smooth="yes"/>
      <point x="490" y="207"/>
      <point x="490" y="155"/>
      <point x="490" y="110" type="curve" smooth="yes"/>
      <point x="490" y="-36"/>
      <point x="280" y="-96"/>
      <point x="103" y="-35" type="curve" smooth="yes"/>
      <point x="40" y="-13"/>
      <point x="69" y="73"/>
    </contour>
  </outline>
</glyph>
<glyph name="j" format="2">
  <advance width="245"/>
  <unicode hex="006A"/>
  <outline>
    <contour>
      <point x="174" y="400" type="curve" smooth="yes"/>
      <point x="174" y="363"/>
      <point x="174" y="316"/>
      <point x="174" y="272" type="curve" smooth="yes"/>
      <point x="174" y="212"/>
      <point x="174" y="131"/>
      <point x="174" y="64" type="curve" smooth="yes"/>
      <point x="174" y="-39"/>
      <point x="75" y="-76"/>
      <point x="-27" y="-48" type="curve" smooth="yes"/>
      <point x="-92" y="-31"/>
      <point x="-69" y="56"/>
      <point x="-3" y="38" type="curve" smooth="yes"/>
      <point x="34" y="29"/>
      <point x="84" y="26"/>
      <point x="84" y="64" type="curve" smooth="yes"/>
      <point x="84" y="164"/>
      <point x="84" y="232"/>
      <point x="84" y="272" type="curve" smooth="yes"/>
      <point x="84" y="338"/>
      <point x="84" y="375"/>
      <point x="84" y="400" type="curve" smooth="yes"/>
      <point x="84" y="468"/>
      <point x="174" y="468"/>
    </contour>
    <contour>
      <point x="84" y="528" type="curve" smooth="yes"/>
      <point x="84" y="539"/>
      <point x="84" y="550"/>
      <point x="84" y="558" type="curve" smooth="yes"/>
      <point x="84" y="626"/>
      <point x="174" y="626"/>
      <point x="174" y="558" type="curve" smooth="yes"/>
      <point x="174" y="546"/>
      <point x="174" y="535"/>
      <point x="174" y="528" type="curve" smooth="yes"/>
      <point x="174" y="461"/>
      <point x="84" y="461"/>
    </contour>
  </outline>
</glyph>
<glyph name="l" format="2">
  <advance width="231"/>
  <unicode hex="006C"/>
  <outline>
    <contour>
      <point x="70" y="102" type="curve" smooth="yes"/>
      <point x="70" y="141"/>
      <point x="70" y="173"/>
      <point x="70" y="199" type="curve" smooth="yes"/>
      <point x="70" y="311"/>
      <point x="70" y="399"/>
      <point x="70" y="474" type="curve" smooth="yes"/>
      <point x="70" y="508"/>
      <point x="70" y="540"/>
      <point x="70" y="565" type="curve" smooth="yes"/>
      <point x="70" y="633"/>
      <point x="160" y="633"/>
      <point x="160" y="565" type="curve" smooth="yes"/>
      <point x="160" y="527"/>
      <point x="160" y="497"/>
      <point x="160" y="474" type="curve" smooth="yes"/>
      <point x="160" y="362"/>
      <point x="160" y="274"/>
      <point x="160" y="199" type="curve" smooth="yes"/>
      <point x="160" y="160"/>
      <point x="160" y="128"/>
      <point x="160" y="102" type="curve" smooth="yes"/>
      <point x="160" y="35"/>
      <point x="70" y="35"/>
    </contour>
  </outline>
</glyph>
<glyph name="u" format="2">
  <advance width="568"/>
  <unicode hex="0075"/>
  <outline>
    <contour>
      <point x="147" y="400" type="curve" smooth="yes"/>
      <point x="147" y="327"/>
      <point x="147" y="270"/>
      <point x="147" y="222" type="curve" smooth="yes"/>
      <point x="147" y="168"/>
      <point x="191" y="145"/>
      <point x="258" y="145" type="curve" smooth="yes"/>
      <point x="338" y="145"/>
      <point x="413" y="184"/>
      <point x="413" y="234" type="curve" smooth="yes"/>
      <point x="413" y="268"/>
      <point x="413" y="318"/>
      <point x="413" y="339" type="curve" smooth="yes"/>
      <point x="413" y="364"/>
      <point x="503" y="597"/>
      <point x="503" y="339" type="curve" smooth="yes"/>
      <point x="503" y="293"/>
      <point x="503" y="227"/>
      <point x="503" y="184" type="curve" smooth="yes"/>
      <point x="503" y="150"/>
      <point x="503" y="120"/>
      <point x="503" y="100" type="curve" smooth="yes"/>
      <point x="503" y="32"/>
      <point x="413" y="33"/>
      <point x="413" y="100" type="curve" smooth="yes"/>
      <point x="413" y="130"/>
      <point x="413" y="161"/>
      <point x="413" y="184" type="curve" smooth="yes"/>
      <point x="413" y="247"/>
      <point x="413" y="308"/>
      <point x="413" y="339" type="curve" smooth="yes"/>
      <point x="413" y="364"/>
      <point x="503" y="597"/>
      <point x="503" y="339" type="curve" smooth="yes"/>
      <point x="503" y="307"/>
      <point x="503" y="257"/>
      <point x="503" y="234" type="curve" smooth="yes"/>
      <point x="503" y="141"/>
      <point x="406" y="55"/>
      <point x="258" y="55" type="curve" smooth="yes"/>
      <point x="134" y="55"/>
      <point x="57" y="121"/>
      <point x="57" y="222" type="curve" smooth="yes"/>
      <point x="57" y="294"/>
      <point x="57" y="351"/>
      <point x="57" y="400" type="curve" smooth="yes"/>
      <point x="57" y="468"/>
      <point x="147" y="468"/>
    </contour>
  </outline>
</glyph>
<glyph name="w" format="2">
  <advance width="725"/>
  <unicode hex="0077"/>
  <outline>
    <contour>
      <point x="110" y="417" type="curve" smooth="yes"/>
      <point x="125" y="387"/>
      <point x="139" y="357"/>
      <point x="154" y="327" type="curve" smooth="yes"/>
      <point x="171" y="292"/>
      <point x="188" y="255"/>
      <point x="208" y="217" type="curve" smooth="yes"/>
      <point x="217" y="197"/>
      <point x="221" y="191"/>
      <point x="229" y="175" type="curve" smooth="yes"/>
      <point x="231" y="171"/>
      <point x="212" y="170"/>
      <point x="215" y="176" type="curve" smooth="yes"/>
      <point x="222" y="190"/>
      <point x="226" y="198"/>
      <point x="232" y="212" type="curve" smooth="yes"/>
      <point x="248" y="247"/>
      <point x="263" y="282"/>
      <point x="277" y="317" type="curve" smooth="yes"/>
      <point x="284" y="334"/>
      <point x="288" y="342"/>
      <point x="297" y="363" type="curve" smooth="yes"/>
      <point x="347" y="478"/>
      <point x="372" y="479"/>
      <point x="426" y="365" type="curve" smooth="yes"/>
      <point x="435" y="345"/>
      <point x="438" y="338"/>
      <point x="446" y="322" type="curve" smooth="yes"/>
      <point x="465" y="282"/>
      <point x="479" y="247"/>
      <point x="493" y="214" type="curve" smooth="yes"/>
      <point x="502" y="194"/>
      <point x="503" y="188"/>
      <point x="510" y="173" type="curve" smooth="yes"/>
      <point x="513" y="167"/>
      <point x="494" y="169"/>
      <point x="497" y="174" type="curve" smooth="yes"/>
      <point x="505" y="190"/>
      <point x="508" y="196"/>
      <point x="517" y="216" type="curve" smooth="yes"/>
      <point x="536" y="255"/>
      <point x="550" y="286"/>
      <point x="571" y="328" type="curve" smooth="yes"/>
      <point x="584" y="352"/>
      <point x="601" y="387"/>
      <point x="614" y="416" type="curve" smooth="yes"/>
      <point x="643" y="477"/>
      <point x="724" y="439"/>
      <point x="696" y="378" type="curve" smooth="yes"/>
      <point x="681" y="347"/>
      <point x="664" y="312"/>
      <point x="651" y="286" type="curve" smooth="yes"/>
      <point x="630" y="246"/>
      <point x="618" y="217"/>
      <point x="599" y="178" type="curve" smooth="yes"/>
      <point x="588" y="156"/>
      <point x="585" y="150"/>
      <point x="577" y="134" type="curve" smooth="yes"/>
      <point x="520" y="19"/>
      <point x="474" y="29"/>
      <point x="428" y="137" type="curve" smooth="yes"/>
      <point x="421" y="154"/>
      <point x="418" y="160"/>
      <point x="411" y="178" type="curve" smooth="yes"/>
      <point x="397" y="211"/>
      <point x="383" y="246"/>
      <point x="366" y="282" type="curve" smooth="yes"/>
      <point x="358" y="298"/>
      <point x="353" y="307"/>
      <point x="344" y="327" type="curve" smooth="yes"/>
      <point x="342" y="332"/>
      <point x="382" y="332"/>
      <point x="379" y="327" type="curve" smooth="yes"/>
      <point x="370" y="307"/>
      <point x="368" y="300"/>
      <point x="361" y="283" type="curve" smooth="yes"/>
      <point x="345" y="246"/>
      <point x="330" y="211"/>
      <point x="314" y="174" type="curve" smooth="yes"/>
      <point x="306" y="158"/>
      <point x="304" y="152"/>
      <point x="297" y="138" type="curve" smooth="yes"/>
      <point x="245" y="24"/>
      <point x="209" y="17"/>
      <point x="147" y="137" type="curve" smooth="yes"/>
      <point x="141" y="151"/>
      <point x="137" y="157"/>
      <point x="128" y="175" type="curve" smooth="yes"/>
      <point x="108" y="215"/>
      <point x="91" y="252"/>
      <point x="74" y="287" type="curve" smooth="yes"/>
      <point x="59" y="317"/>
      <point x="45" y="347"/>
      <point x="30" y="377" type="curve" smooth="yes"/>
      <point x="0" y="437"/>
      <point x="80" y="477"/>
    </contour>
  </outline>
</glyph>
<glyph name="x" format="2">
  <advance width="499"/>
  <unicode hex="0078"/>
  <outline>
    <contour>
      <point x="121" y="431" type="curve" smooth="yes"/>
      <point x="144" y="411"/>
      <point x="169" y="388"/>
      <point x="190" y="368" type="curve" smooth="yes"/>
      <point x="224" y="337"/>
      <point x="310" y="259"/>
      <point x="386" y="190" type="curve" smooth="yes"/>
      <point x="407" y="170"/>
      <point x="427" y="152"/>
      <point x="445" y="136" type="curve" smooth="yes"/>
      <point x="497" y="93"/>
      <point x="439" y="24"/>
      <point x="387" y="68" type="curve" smooth="yes"/>
      <point x="367" y="84"/>
      <point x="347" y="104"/>
      <point x="326" y="124" type="curve" smooth="yes"/>
      <point x="250" y="193"/>
      <point x="164" y="271"/>
      <point x="130" y="302" type="curve" smooth="yes"/>
      <point x="109" y="320"/>
      <point x="84" y="343"/>
      <point x="61" y="363" type="curve" smooth="yes"/>
      <point x="11" y="407"/>
      <point x="70" y="475"/>
    </contour>
    <contour>
      <point x="441" y="364" type="curve" smooth="yes"/>
      <point x="419" y="344"/>
      <point x="396" y="324"/>
      <point x="374" y="304" type="curve" smooth="yes"/>
      <point x="305" y="242"/>
      <point x="236" y="178"/>
      <point x="185" y="133" type="curve" smooth="yes"/>
      <point x="161" y="112"/>
      <point x="136" y="89"/>
      <point x="112" y="68" type="curve" smooth="yes"/>
      <point x="61" y="24"/>
      <point x="2" y="91"/>
      <point x="52" y="136" type="curve" smooth="yes"/>
      <point x="76" y="157"/>
      <point x="101" y="180"/>
      <point x="125" y="201" type="curve" smooth="yes"/>
      <point x="177" y="247"/>
      <point x="246" y="311"/>
      <point x="314" y="370" type="curve" smooth="yes"/>
      <point x="336" y="390"/>
      <point x="359" y="410"/>
      <point x="381" y="430" type="curve" smooth="yes"/>
      <point x="431" y="476"/>
      <point x="491" y="409"/>
    </contour>
    <contour>
      <point x="121" y="431" type="curve" smooth="yes"/>
      <point x="144" y="411"/>
      <point x="167" y="389"/>
      <point x="190" y="369" type="curve" smooth="yes"/>
      <point x="208" y="352"/>
      <point x="221" y="340"/>
      <point x="233" y="329" type="curve" smooth="yes"/>
      <point x="293" y="274"/>
      <point x="291" y="228"/>
      <point x="232" y="176" type="curve" smooth="yes"/>
      <point x="217" y="163"/>
      <point x="200" y="146"/>
      <point x="182" y="132" type="curve" smooth="yes"/>
      <point x="163" y="115"/>
      <point x="136" y="90"/>
      <point x="112" y="68" type="curve" smooth="yes"/>
      <point x="61" y="24"/>
      <point x="2" y="91"/>
      <point x="52" y="136" type="curve" smooth="yes"/>
      <point x="76" y="156"/>
      <point x="103" y="183"/>
      <point x="126" y="202" type="curve" smooth="yes"/>
      <point x="140" y="214"/>
      <point x="155" y="229"/>
      <point x="172" y="244" type="curve" smooth="yes"/>
      <point x="184" y="254"/>
      <point x="184" y="252"/>
      <point x="171" y="263" type="curve" smooth="yes"/>
      <point x="154" y="279"/>
      <point x="141" y="291"/>
      <point x="130" y="301" type="curve" smooth="yes"/>
      <point x="107" y="321"/>
      <point x="84" y="343"/>
      <point x="61" y="363" type="curve" smooth="yes"/>
      <point x="11" y="407"/>
      <point x="70" y="475"/>
    </contour>
  </outline>
</glyph>
<glyph name="guillemetleft" format="2">
  <advance width="637"/>
  <unicode hex="00AB"/>
  <outline>
    <contour>
      <point x="303" y="363" type="curve" smooth="yes"/>
      <point x="259" y="333"/>
      <point x="217" y="302"/>
      <point x="163" y="265" type="curve" smooth="yes"/>
      <point x="157" y="261"/>
      <point x="156" y="262"/>
      <point x="162" y="257" type="curve" smooth="yes"/>
      <point x="216" y="221"/>
      <point x="260" y="188"/>
      <point x="303" y="158" type="curve" smooth="yes"/>
      <point x="359" y="120"/>
      <point x="308" y="46"/>
      <point x="253" y="84" type="curve" smooth="yes"/>
      <point x="208" y="114"/>
      <point x="166" y="147"/>
      <point x="112" y="183" type="curve" smooth="yes"/>
      <point x="27" y="239"/>
      <point x="23" y="276"/>
      <point x="113" y="339" type="curve" smooth="yes"/>
      <point x="166" y="376"/>
      <point x="209" y="407"/>
      <point x="253" y="437" type="curve" smooth="yes"/>
      <point x="308" y="475"/>
      <point x="359" y="401"/>
    </contour>
    <contour>
      <point x="563" y="363" type="curve" smooth="yes"/>
      <point x="519" y="333"/>
      <point x="477" y="302"/>
      <point x="423" y="265" type="curve" smooth="yes"/>
      <point x="417" y="261"/>
      <point x="416" y="262"/>
      <point x="422" y="257" type="curve" smooth="yes"/>
      <point x="476" y="220"/>
      <point x="519" y="188"/>
      <point x="563" y="158" type="curve" smooth="yes"/>
      <point x="619" y="120"/>
      <point x="568" y="46"/>
      <point x="513" y="84" type="curve" smooth="yes"/>
      <point x="469" y="114"/>
      <point x="425" y="146"/>
      <point x="372" y="183" type="curve" smooth="yes"/>
      <point x="287" y="239"/>
      <point x="283" y="276"/>
      <point x="373" y="339" type="curve" smooth="yes"/>
      <point x="426" y="376"/>
      <point x="469" y="407"/>
      <point x="513" y="437" type="curve" smooth="yes"/>
      <point x="568" y="475"/>
      <point x="619" y="401"/>
    </contour>
  </outline>
</glyph>
<glyph name="hyphensoft" format="2">
  <advance width="340"/>
  <unicode hex="00AD"/>
  <outline>
    <contour>
      <point x="265" y="246" type="curve" smooth="yes"/>
      <point x="75" y="246" type="line" smooth="yes"/>
      <point x="7" y="246"/>
      <point x="8" y="336"/>
      <point x="75" y="336" type="curve" smooth="yes"/>
      <point x="265" y="336" type="line" smooth="yes"/>
      <point x="333" y="336"/>
      <point x="333" y="246"/>
    </contour>
  </outline>
</glyph>
<glyph name="mu.math" format="2">
  <advance width="568"/>
  <unicode hex="00B5"/>
  <outline>
    <contour>
      <point x="57" y="-2" type="curve" smooth="yes"/>
      <point x="57" y="43"/>
      <point x="57" y="78"/>
      <point x="57" y="109" type="curve" smooth="yes"/>
      <point x="57" y="202"/>
      <point x="57" y="277"/>
      <point x="57" y="339" type="curve" smooth="yes"/>
      <point x="57" y="364"/>
      <point x="147" y="600"/>
      <point x="147" y="339" type="curve" smooth="yes"/>
      <point x="147" y="291"/>
      <point x="147" y="254"/>
      <point x="147" y="222" type="curve" smooth="yes"/>
      <point x="147" y="168"/>
      <point x="191" y="145"/>
      <point x="258" y="145" type="curve" smooth="yes"/>
      <point x="338" y="145"/>
      <point x="413" y="184"/>
      <point x="413" y="234" type="curve" smooth="yes"/>
      <point x="413" y="268"/>
      <point x="413" y="318"/>
      <point x="413" y="339" type="curve" smooth="yes"/>
      <point x="413" y="364"/>
      <point x="503" y="597"/>
      <point x="503" y="339" type="curve" smooth="yes"/>
      <point x="503" y="293"/>
      <point x="503" y="227"/>
      <point x="503" y="184" type="curve" smooth="yes"/>
      <point x="503" y="150"/>
      <point x="503" y="120"/>
      <point x="503" y="100" type="curve" smooth="yes"/>
      <point x="503" y="32"/>
      <point x="413" y="33"/>
      <point x="413" y="100" type="curve" smooth="yes"/>
      <point x="413" y="130"/>
      <point x="413" y="161"/>
      <point x="413" y="184" type="curve" smooth="yes"/>
      <point x="413" y="247"/>
      <point x="413" y="308"/>
      <point x="413" y="339" type="curve" smooth="yes"/>
      <point x="413" y="364"/>
      <point x="503" y="597"/>
      <point x="503" y="339" type="curve" smooth="yes"/>
      <point x="503" y="307"/>
      <point x="503" y="257"/>
      <point x="503" y="234" type="curve" smooth="yes"/>
      <point x="503" y="141"/>
      <point x="406" y="55"/>
      <point x="258" y="55" type="curve" smooth="yes"/>
      <point x="134" y="55"/>
      <point x="57" y="121"/>
      <point x="57" y="222" type="curve" smooth="yes"/>
      <point x="57" y="270"/>
      <point x="57" y="307"/>
      <point x="57" y="339" type="curve" smooth="yes"/>
      <point x="57" y="364"/>
      <point x="147" y="600"/>
      <point x="147" y="339" type="curve" smooth="yes"/>
      <point x="147" y="246"/>
      <point x="147" y="171"/>
      <point x="147" y="109" type="curve" smooth="yes"/>
      <point x="147" y="63"/>
      <point x="147" y="28"/>
      <point x="147" y="-2" type="curve" smooth="yes"/>
      <point x="147" y="-69"/>
      <point x="57" y="-69"/>
    </contour>
  </outline>
</glyph>
<glyph name="onequarter" format="2">
  <advance width="899"/>
  <unicode hex="00BC"/>
  <outline>
    <contour>
      <point x="73" y="557" type="curve" smooth="yes"/>
      <point x="224" y="579"/>
      <point x="235" y="531"/>
      <point x="235" y="466" type="curve" smooth="yes"/>
      <point x="235" y="397"/>
      <point x="235" y="342"/>
      <point x="235" y="296" type="curve" smooth="yes"/>
      <point x="235" y="229"/>
      <point x="145" y="229"/>
      <point x="145" y="296" type="curve" smooth="yes"/>
      <point x="145" y="364"/>
      <point x="145" y="419"/>
      <point x="145" y="466" type="curve" smooth="yes"/>
      <point x="145" y="478"/>
      <point x="115" y="472"/>
      <point x="87" y="467" type="curve" smooth="yes"/>
      <point x="20" y="458"/>
      <point x="7" y="547"/>
    </contour>
    <contour>
      <point x="646" y="498" type="curve" smooth="yes"/>
      <point x="270" y="74" type="line" smooth="yes"/>
      <point x="225" y="24"/>
      <point x="158" y="83"/>
      <point x="202" y="134" type="curve" smooth="yes"/>
      <point x="578" y="558" type="line" smooth="yes"/>
      <point x="623" y="608"/>
      <point x="690" y="549"/>
    </contour>
    <contour>
      <point x="819" y="125" type="curve" smooth="yes"/>
      <point x="746" y="125"/>
      <point x="686" y="125"/>
      <point x="636" y="125" type="curve" smooth="yes"/>
      <point x="530" y="125"/>
      <point x="496" y="187"/>
      <point x="549" y="254" type="curve" smooth="yes"/>
      <point x="567" y="278"/>
      <point x="576" y="289"/>
      <point x="603" y="323" type="curve" smooth="yes"/>
      <point x="672" y="411"/>
      <point x="786" y="388"/>
      <point x="786" y="288" type="curve" smooth="yes"/>
      <point x="786" y="232"/>
      <point x="786" y="157"/>
      <point x="786" y="104" type="curve" smooth="yes"/>
      <point x="786" y="36"/>
      <point x="696" y="37"/>
      <point x="696" y="104" type="curve" smooth="yes"/>
      <point x="696" y="183"/>
      <point x="696" y="250"/>
      <point x="696" y="288" type="curve" smooth="yes"/>
      <point x="696" y="292"/>
      <point x="676" y="271"/>
      <point x="673" y="267" type="curve" smooth="yes"/>
      <point x="646" y="233"/>
      <point x="639" y="224"/>
      <point x="619" y="198" type="curve" smooth="yes"/>
      <point x="617" y="195"/>
      <point x="631" y="215"/>
      <point x="636" y="215" type="curve" smooth="yes"/>
      <point x="710" y="215"/>
      <point x="770" y="215"/>
      <point x="819" y="215" type="curve" smooth="yes"/>
      <point x="887" y="215"/>
      <point x="887" y="125"/>
    </contour>
  </outline>
</glyph>
<glyph name="divide" format="2">
  <advance width="540"/>
  <unicode hex="00F7"/>
  <outline>
    <contour>
      <point x="80" y="336" type="curve" smooth="yes"/>
      <point x="460" y="336" type="line" smooth="yes"/>
      <point x="528" y="336"/>
      <point x="528" y="246"/>
      <point x="460" y="246" type="curve" smooth="yes"/>
      <point x="80" y="246" type="line" smooth="yes"/>
      <point x="13" y="246"/>
      <point x="13" y="336"/>
    </contour>
    <contour>
      <point x="272" y="353" type="curve" smooth="yes"/>
      <point x="185" y="364"/>
      <point x="185" y="464"/>
      <point x="272" y="475" type="curve" smooth="yes"/>
      <point x="339" y="483"/>
      <point x="349" y="393"/>
      <point x="282" y="385" type="curve" smooth="yes"/>
      <point x="280" y="385"/>
      <point x="280" y="443"/>
      <point x="282" y="443" type="curve" smooth="yes"/>
      <point x="349" y="435"/>
      <point x="339" y="345"/>
    </contour>
    <contour>
      <point x="273" y="109" type="curve" smooth="yes"/>
      <point x="185" y="117"/>
      <point x="184" y="219"/>
      <point x="272" y="230" type="curve" smooth="yes"/>
      <point x="339" y="238"/>
      <point x="349" y="148"/>
      <point x="282" y="140" type="curve" smooth="yes"/>
      <point x="280" y="140"/>
      <point x="278" y="199"/>
      <point x="281" y="199" type="curve" smooth="yes"/>
      <point x="348" y="193"/>
      <point x="340" y="103"/>
    </contour>
  </outline>
</glyph>
<glyph name="OE" format="2">
  <advance width="933"/>
  <unicode hex="0152"/>
  <outline>
    <contour>
      <point x="535" y="366" type="curve" smooth="yes"/>
      <point x="813" y="366" type="line" smooth="yes"/>
      <point x="881" y="366"/>
      <point x="881" y="276"/>
      <point x="813" y="276" type="curve" smooth="yes"/>
      <point x="535" y="276" type="line" smooth="yes"/>
      <point x="468" y="276"/>
      <point x="468" y="366"/>
    </contour>
    <contour>
      <point x="833" y="60" type="curve" smooth="yes"/>
      <point x="358" y="60" type="line" smooth="yes"/>
      <point x="168" y="60"/>
      <point x="45" y="170"/>
      <point x="45" y="313" type="curve" smooth="yes"/>
      <point x="45" y="457"/>
      <point x="166" y="567"/>
      <point x="357" y="567" type="curve" smooth="yes"/>
      <point x="833" y="567" type="line" smooth="yes"/>
      <point x="901" y="567"/>
      <point x="901" y="477"/>
      <point x="833" y="477" type="curve" smooth="yes"/>
      <point x="357" y="477" type="line" smooth="yes"/>
      <point x="225" y="477"/>
      <point x="135" y="413"/>
      <point x="135" y="313" type="curve" smooth="yes"/>
      <point x="135" y="214"/>
      <point x="227" y="150"/>
      <point x="358" y="150" type="curve" smooth="yes"/>
      <point x="833" y="150" type="line" smooth="yes"/>
      <point x="901" y="150"/>
      <point x="901" y="60"/>
    </contour>
    <contour>
      <point x="490" y="105" type="curve" smooth="yes"/>
      <point x="490" y="522" type="line" smooth="yes"/>
      <point x="490" y="590"/>
      <point x="580" y="590"/>
      <point x="580" y="522" type="curve" smooth="yes"/>
      <point x="580" y="105" type="line" smooth="yes"/>
      <point x="580" y="38"/>
      <point x="490" y="38"/>
    </contour>
  </outline>
</glyph>
<glyph name="quoteleft" format="2">
  <advance width="274"/>
  <unicode hex="2018"/>
  <outline>
    <contour>
      <point x="194" y="503" type="curve" smooth="yes"/>
      <point x="179" y="486"/>
      <point x="153" y="442"/>
      <point x="169" y="432" type="curve" smooth="yes"/>
      <point x="226" y="396"/>
      <point x="178" y="320"/>
      <point x="121" y="356" type="curve" smooth="yes"/>
      <point x="56" y="397"/>
      <point x="62" y="484"/>
      <point x="124" y="561" type="curve" smooth="yes"/>
      <point x="167" y="613"/>
      <point x="237" y="556"/>
    </contour>
  </outline>
</glyph>
<glyph name="guilsinglright" format="2">
  <advance width="397"/>
  <unicode hex="203A"/>
  <outline>
    <contour>
      <point x="76" y="158" type="curve" smooth="yes"/>
      <point x="124" y="189"/>
      <point x="171" y="220"/>
      <point x="229" y="257" type="curve" smooth="yes"/>
      <point x="234" y="260"/>
      <point x="233" y="260"/>
      <point x="228" y="263" type="curve" smooth="yes"/>
      <point x="169" y="300"/>
      <point x="123" y="330"/>
      <point x="76" y="360" type="curve" smooth="yes"/>
      <point x="19" y="396"/>
      <point x="67" y="472"/>
      <point x="124" y="436" type="curve" smooth="yes"/>
      <point x="171" y="406"/>
      <point x="217" y="376"/>
      <point x="276" y="339" type="curve" smooth="yes"/>
      <point x="373" y="276"/>
      <point x="368" y="237"/>
      <point x="277" y="181" type="curve" smooth="yes"/>
      <point x="219" y="143"/>
      <point x="171" y="112"/>
      <point x="124" y="82" type="curve" smooth="yes"/>
      <point x="67" y="46"/>
      <point x="19" y="122"/>
    </contour>
  </outline>
</glyph>
<glyph name="a.alt" format="2">
  <advance width="544"/>
  <outline>
    <contour>
      <point x="109" y="431" type="curve" smooth="yes"/>
      <point x="295" y="491"/>
      <point x="476" y="451"/>
      <point x="476" y="337" type="curve" smooth="yes"/>
      <point x="476" y="103" type="line" smooth="yes"/>
      <point x="476" y="35"/>
      <point x="386" y="36"/>
      <point x="386" y="103" type="curve" smooth="yes"/>
      <point x="386" y="337" type="line" smooth="yes"/>
      <point x="386" y="382"/>
      <point x="210" y="369"/>
      <point x="137" y="345" type="curve" smooth="yes"/>
      <point x="73" y="324"/>
      <point x="45" y="410"/>
    </contour>
    <contour>
      <point x="476" y="251" type="curve" smooth="yes"/>
      <point x="476" y="148"/>
      <point x="369" y="54"/>
      <point x="218" y="54" type="curve" smooth="yes"/>
      <point x="105" y="54"/>
      <point x="55" y="112"/>
      <point x="55" y="172" type="curve" smooth="yes"/>
      <point x="55" y="262"/>
      <point x="173" y="321"/>
      <point x="430" y="324" type="curve" smooth="yes"/>
      <point x="497" y="325"/>
      <point x="498" y="235"/>
      <point x="430" y="234" type="curve" smooth="yes"/>
      <point x="323" y="233"/>
      <point x="145" y="210"/>
      <point x="145" y="172" type="curve" smooth="yes"/>
      <point x="145" y="153"/>
      <point x="183" y="144"/>
      <point x="218" y="144" type="curve" smooth="yes"/>
      <point x="305" y="144"/>
      <point x="386" y="191"/>
      <point x="386" y="251" type="curve" smooth="yes"/>
      <point x="386" y="319"/>
      <point x="476" y="319"/>
    </contour>
  </outline>
</glyph>
<glyph name="e" format="2">
  <advance width="588"/>
  <outline>
    <contour>
      <point x="442.70299819682936" y="153.8079840642246" type="curve" smooth="yes"/>
      <point x="441.42123135386396" y="155.0879030839842"/>
      <point x="339.9872423134213" y="153.56538092808333"/>
      <point x="335.00930433212744" y="153.36958444706283" type="curve" smooth="yes"/>
      <point x="169.4872293856461" y="146.85912973117243"/>
      <point x="50.040719183830916" y="225.02701508336668"/>
      <point x="50.01592400748131" y="370.90676108442017" type="curve" smooth="yes"/>
      <point x="49.995057317889426" y="493.67367891657085"/>
      <point x="145.24342828563374" y="565.3133018229126"/>
      <point x="300.1137309565334" y="580.4832371652136" type="curve" smooth="yes"/>
      <point x="435.32959981520617" y="593.7279713231757"/>
      <point x="516.8010924807479" y="550.9994129114068"/>
      <point x="540.0844714822997" y="431.37993298164463" type="curve" smooth="yes"/>
      <point x="558.5595149279419" y="336.46350832952777"/>
      <point x="516.3661292806568" y="241.1905388780272"/>
      <point x="411.0446308861337" y="264.85595845198054" type="curve" smooth="yes"/>
      <point x="362.69293981126395" y="275.7204360167667"/>
      <point x="339.6666086503646" y="294.7235071318559"/>
      <point x="303.57244530526884" y="299.4114063081409" type="curve" smooth="yes"/>
      <point x="262.86713543991857" y="304.69819981998256"/>
      <point x="236.65150535099926" y="297.58345695783675"/>
      <point x="215.92268874572062" y="285.0212255324803" type="curve" smooth="yes"/>
      <point x="151.7819081486607" y="246.15015319841905"/>
      <point x="99.9538117032457" y="331.67119399449894"/>
      <point x="164.09459230030564" y="370.5422663285602" type="curve" smooth="yes"/>
      <point x="199.30035126760313" y="391.87792190765776"/>
      <point x="247.31846263298624" y="407.5575664171719"/>
      <point x="316.4522368902077" y="398.5784924240924" type="curve" smooth="yes"/>
      <point x="366.7496052416407" y="392.0458852152863"/>
      <point x="398.2705978092874" y="370.2195967088225"/>
      <point x="432.96770655619554" y="362.423262161598" type="curve" smooth="yes"/>
      <point x="449.7648711154378" y="358.6489904981038"/>
      <point x="444.8731159564298" y="397.1362478821237"/>
      <point x="441.9266297240261" y="412.2739626750175" type="curve" smooth="yes"/>
      <point x="428.56115880970975" y="480.93971259389076"/>
      <point x="387.48094716515726" y="488.56248604937804"/>
      <point x="309.86232650600897" y="480.95954709690506" type="curve" smooth="yes"/>
      <point x="218.62833445344677" y="472.0229483004371"/>
      <point x="150.00363001006485" y="443.2456675285193"/>
      <point x="150.01592256299176" y="370.9237580813791" type="curve" smooth="yes"/>
      <point x="150.031117345101" y="281.52689623286847"/>
      <point x="229.64514135415527" y="249.30263552965533"/>
      <point x="331.0790584845194" y="253.29232043631282" type="curve" smooth="yes"/>
      <point x="438.3746459425302" y="257.51256153458394"/>
      <point x="485.7351632191458" y="252.15731009294373"/>
      <point x="513.3626521346296" y="224.5696495716892" type="curve" smooth="yes"/>
      <point x="566.4339012652281" y="171.57490911833906"/>
      <point x="495.7742473274279" y="100.81324361087445"/>
    </contour>
  </outline>
</glyph>
<glyph name="o" format="2">
  <advance width="640"/>
  <outline>
    <contour>
      <point x="348.6570504244733" y="233.68094381692842" type="curve" smooth="yes"/>
      <point x="383.4698166475294" y="254.19377977502043"/>
      <point x="431.7998916046305" y="277.45657715443406"/>
      <point x="458.2075649299039" y="300.4422779364542" type="curve" smooth="yes"/>
      <point x="480.0460517903589" y="319.45087889586136"/>
      <point x="490.02088293169317" y="342.4580868158801"/>
      <point x="490.01616456802816" y="369.49231937444375" type="curve" smooth="yes"/>
      <point x="490.0045278464151" y="436.16582329199065"/>
      <point x="412.10266467562127" y="480.72139213105936"/>
      <point x="319.98802889881074" y="480.72139213105936" type="curve" smooth="yes"/>
      <point x="227.59783154449596" y="480.72139213105936"/>
      <point x="150.00422887050914" y="437.9259529493177"/>
      <point x="150.01616974652427" y="369.5097726666093" type="curve" smooth="yes"/>
      <point x="150.02076736207067" y="343.16737586979616"/>
      <point x="163.1930418073801" y="317.46508976378834"/>
      <point x="182.75506883430208" y="300.5351217179725" type="curve" smooth="yes"/>
      <point x="206.44577183197984" y="280.0319885722298"/>
      <point x="247.3381518761105" y="262.57411922105115"/>
      <point x="292.37021066077364" y="233.179763487283" type="curve" smooth="yes"/>
      <point x="355.17465014942337" y="192.18461279215157"/>
      <point x="300.5144492225814" y="108.44536014061865"/>
      <point x="237.71000973393166" y="149.44051083575008" type="curve" smooth="yes"/>
      <point x="203.8884252205584" y="171.51730930991596"/>
      <point x="148.8561523068483" y="197.62301638626857"/>
      <point x="117.31454150987182" y="224.92072240474317" type="curve" smooth="yes"/>
      <point x="75.97953158021333" y="260.69413158772335"/>
      <point x="50.02588613627623" y="313.8302332486683"/>
      <point x="50.01617126961133" y="369.49231937444375" type="curve" smooth="yes"/>
      <point x="49.99545237936265" y="488.2028167212485"/>
      <point x="159.67965984664139" y="580.7213921310594"/>
      <point x="319.98802889881074" y="580.7213921310594" type="curve" smooth="yes"/>
      <point x="480.6194705501202" y="580.7213921310594"/>
      <point x="589.995870684742" y="485.77643283307054"/>
      <point x="590.0161630449411" y="369.5097726666093" type="curve" smooth="yes"/>
      <point x="590.0257617939101" y="314.51299193407647"/>
      <point x="568.2889101301854" y="263.68349538554867"/>
      <point x="523.862035026816" y="225.01356618626144" type="curve" smooth="yes"/>
      <point x="486.84374003219693" y="192.7921947035822"/>
      <point x="448.22347993869903" y="176.28002478130122"/>
      <point x="399.4229198230734" y="147.52511694373155" type="curve" smooth="yes"/>
      <point x="334.8060496681758" y="109.45071489478144"/>
      <point x="284.04018026957567" y="195.6065417679783"/>
    </contour>
  </outline>
</glyph>
<glyph name="s" format="2">
  <advance width="513"/>
  <outline>
    <contour>
      <point x="359.6037099339928" y="450.70295446208956" type="curve" smooth="yes"/>
      <point x="330.25184030937464" y="469.91570643690017"/>
      <point x="300.4139224685557" y="477.8807042431501"/>
      <point x="271.102494630415" y="480.1654973348215" type="curve" smooth="yes"/>
      <point x="242.99037717134433" y="482.3568055207421"/>
      <point x="163.99819155698276" y="472.5104484401826"/>
      <point x="164.00061847592718" y="458.6052270961143" type="curve" smooth="yes"/>
      <point x="164.0100953672047" y="404.30663950946166"/>
      <point x="455.0036831728554" y="441.02041251947526"/>
      <point x="455.03196105098164" y="279.00010467473123" type="curve" smooth="yes"/>
      <point x="455.04414662610446" y="209.1819017726383"/>
      <point x="387.68789900098716" y="164.87405990978172"/>
      <point x="255.0237555188871" y="156.95532178249783" type="curve" smooth="yes"/>
      <point x="202.89012742050642" y="153.8434594683829"/>
      <point x="150.78758245901693" y="151.98365159123236"/>
      <point x="127.0204028781066" y="142.22723164213534" type="curve" smooth="yes"/>
      <point x="57.638685286154086" y="113.74605779008795"/>
      <point x="19.66378681675765" y="206.25501457935798"/>
      <point x="89.04550440871016" y="234.73618843140537" type="curve" smooth="yes"/>
      <point x="126.3383003361569" y="250.04486975413073"/>
      <point x="167.2630996184203" y="251.89486514342087"/>
      <point x="249.06534910333144" y="256.77765091274335" type="curve" smooth="yes"/>
      <point x="265.57498099838506" y="257.7631127573934"/>
      <point x="355.0334790302447" y="270.29399746875805"/>
      <point x="355.03196257406864" y="278.9826513825657" type="curve" smooth="yes"/>
      <point x="355.0222959882337" y="334.3681087287962"/>
      <point x="64.02834368718656" y="299.7427405166316"/>
      <point x="64.00061999901425" y="458.5877738039487" type="curve" smooth="yes"/>
      <point x="63.98882155950621" y="526.1878530122481"/>
      <point x="142.20706246376037" y="590.516093786006"/>
      <point x="278.8738094304929" y="579.8630733649242" type="curve" smooth="yes"/>
      <point x="323.47028198339206" y="576.3868280941568"/>
      <point x="369.71285938970544" y="563.6039326439814"/>
      <point x="414.3708629273995" y="534.3722974318821" type="curve" smooth="yes"/>
      <point x="477.12287015474396" y="493.29693268682706"/>
      <point x="422.3557171613372" y="409.62758971703454"/>
    </contour>
  </outline>
</glyph>
